<?xml version="1.0" encoding="utf-8"?>
<!-- Generator: Adobe Illustrator 22.0.1, SVG Export Plug-In . SVG Version: 6.00 Build 0)  -->
<svg version="1.1" id="Layer_1" xmlns="http://www.w3.org/2000/svg" xmlns:xlink="http://www.w3.org/1999/xlink" x="0px" y="0px"
	 viewBox="0 0 100 97.9" style="enable-background:new 0 0 100 97.9;" xml:space="preserve">
<style type="text/css">
	.st0{fill:#474747;}
</style>
<path class="st0" d="M58.4,38.1c-8.6-15.8-7-38-31.6-38.1C2.3-0.1,0,17.1,0,39.8v57.7l16.2,0.4l83.8-0.4V70.7
	C100,41.5,67.9,55.6,58.4,38.1z M95.1,92.7H4.9V80.5h4.9v9.8h2.4v-9.8h2.4v9.8h2.4v-9.8h9.8v9.8h2.4v-9.8h2.4v9.8h2.4v-9.8h2.4v9.8
	H39v-9.8h7.3v9.8h2.4v-9.8h2.4v9.8h2.4v-9.8h9.8v9.8h2.4v-9.8h2.4v9.8h2.4v-9.8h2.4v9.8h2.4v-9.8h7.3v9.8h2.4v-9.8h2.4v9.8h2.4v-9.8
	h4.9L95.1,92.7L95.1,92.7z"/>
</svg>
